<svg width="978" height="1281" viewBox="0 0 978 1281" fill="none" xmlns="http://www.w3.org/2000/svg">
<path d="M655.946 0C721.97 0 796.302 15.6833 854.462 36.5908C923.089 61.2584 998.309 102.005 1052.4 150.164L1112.34 207.776C1150.25 245.128 1198.7 320.588 1221.39 371.45C1225.44 380.538 1229.68 389.24 1233.64 399.168C1237.58 409.035 1240.32 417.333 1244.21 427.395C1251.5 446.256 1256.82 466.276 1262.05 487.139C1277.9 550.416 1280.15 588.897 1280.15 655.943C1280.15 722.1 1264.49 796.246 1243.56 854.459C1234.6 879.383 1220.56 913.288 1208.06 936.509C1205.53 941.208 1203.64 944.522 1201 949.438C1186.16 977.09 1165.99 1005.97 1147.32 1030.94C1141.86 1038.23 1136.19 1045.43 1129.99 1052.4L1072.37 1112.33C1065.75 1119.06 1058.88 1124.25 1051.8 1130.55C1039.47 1141.53 1010.66 1162.86 996.147 1172.47C968.681 1190.67 938.822 1207.95 908.7 1221.39C899.612 1225.44 890.91 1229.68 880.982 1233.64C871.115 1237.57 862.817 1240.31 852.756 1244.2C833.923 1251.49 813.844 1256.83 793.012 1262.05C729.795 1277.88 691.172 1280.15 624.207 1280.15C541.221 1280.15 457.184 1258.38 383.55 1226.93C341.998 1209.18 331.183 1200.98 294.684 1179.43C272.034 1166.06 217.664 1123.67 196.599 1102.36L149.597 1051.8L99.8662 983.976C93.5881 973.489 83.4097 958.09 77.9697 947.097C70.9442 932.898 66.5302 926.115 58.7627 908.702C39.8909 866.405 29.91 840.141 18.1064 793.014C2.25633 729.736 0.00195312 691.257 0.00195312 624.209L0 624.205C4.29062e-05 575.943 8.4652 525.658 18.3379 486.197C32.0473 431.401 56.4093 367.724 86.0293 318.782C91.0653 310.463 95.765 303.078 100.723 294.683C105.696 286.259 111.027 279.115 116.371 271.538C161.117 208.104 219.044 150.718 284.007 107.675C288.529 104.68 291.716 102.537 296.181 99.8643C304.135 95.1023 311.744 90.1306 320.243 85.1338L371.454 58.7617C380.542 54.708 389.244 50.4702 399.172 46.5107C409.039 42.5763 417.337 39.8363 427.398 35.9463C446.073 28.7268 466.508 23.2722 487.142 18.1045C550.359 2.26863 588.98 8.29668e-06 655.946 0ZM810.096 133.862C704.385 98.7561 580.207 97.1167 472.719 132.986C457.226 138.156 440.873 144.201 425.948 150.871C369.013 176.315 341.7 196.284 295.737 232.257C291.944 235.227 290.258 237.19 286.835 239.811C276.941 247.386 262.155 262.348 253.603 271.233C250.375 274.586 249.459 276.661 246.002 280.09C242.543 283.521 241.25 284.685 238.142 288.687C235.41 292.201 233.381 293.994 230.561 297.565C180.053 361.498 147.162 418.348 124.853 499.846C120.256 516.639 116.177 534.536 113.352 553C111.891 562.538 109.955 572.94 109.369 581.932C107.501 610.6 103.395 649.375 107.474 676.614C110.444 696.445 110.999 714.687 114.526 734.215C121.134 770.791 131.081 805.719 143.249 835.975C161.808 882.123 184.416 922.186 213.447 960.913C228.732 981.303 256.677 1015.72 275.077 1029.77C278.59 1032.45 280.334 1034.51 283.576 1037.72C291.586 1045.66 301.033 1052.27 309.974 1059.52C331.056 1076.64 354.341 1092.05 378.161 1105.36C410.642 1123.52 442.332 1137.64 479.757 1149.53C505.668 1157.76 558.647 1170.83 587.767 1170.83C588.185 1165.81 588.996 1163.55 588.957 1156.74L588.94 1049.75C588.94 1028.27 590.117 1010.92 590.117 989.8V929.848C568.875 929.848 504.477 939.096 483.665 942.123C465.028 944.833 449.47 947.147 431.742 950.152C404.941 954.695 411.48 958.026 407.724 921.805L393.812 816.987C391.153 800.877 387.606 784.147 383.94 768.083C376.579 735.822 369.557 704.963 359.566 673.728C354.892 659.112 350.587 643.203 345.758 628.761C335.985 599.538 326.485 569.982 315.543 541.423C299.168 498.679 283.082 458.673 258.163 421.298C255.754 417.686 254.14 415.817 251.798 412.381C247.709 406.379 234.443 392.892 233.932 386.753C279.722 376.087 350.089 411.44 385.58 434.945C409.062 450.498 412.938 457.789 428.39 469.719C431.463 472.093 456.141 493.975 447.247 494.388C439.223 494.76 407.582 482.589 398.168 478.782C394.685 477.374 393.342 476.445 389.107 476.093C389.107 476.09 389.107 476.088 389.106 476.086L389.102 476.093C389.104 476.093 389.105 476.093 389.107 476.093C389.538 481.068 410.809 533.776 413.95 544.109L442.938 642.077C458.87 700.536 472.589 758.898 484.618 819.046C485.431 823.11 489.218 846.812 491.297 848.811C496.477 853.79 573.536 840.5 590.122 840.5V489.018C565.67 489.018 540.081 489.37 516.064 491.368C516.536 485.693 531.372 469.393 535.041 464.499C554.345 438.769 572.331 412.315 590.124 385.572C606.314 361.239 621.245 320.154 631.95 292.212C634.182 286.391 635.934 281.567 637.892 275.817C639.547 270.952 642.626 263.379 643.022 258.613H645.373C645.373 278.348 657.913 310.582 665.019 328.308C673.206 348.731 681.924 369.797 693.072 388.418L708.916 417.244C714.586 426.706 720.222 435.456 726.474 444.355C742.491 467.163 766.378 485.614 768.802 490.192C746.401 495.412 710.014 484.314 685.339 484.314V838.147L791.137 855.78L794.147 829.403C795.473 819.872 796.171 812.923 797.511 803.378C804.472 753.756 813.554 703.808 825.463 656.178L845.348 587.898C847.483 581.508 850.189 574.062 852.932 567.27C858.802 552.719 863.824 539.769 870.282 525.845L879.69 505.864C882.248 500.793 887.557 491.596 888.705 486.667C883.788 487.076 878.989 488.964 874.599 490.193C870.175 491.432 866.251 492.509 861.662 493.714C856.886 494.967 853.111 496.255 847.809 497.493C844.002 498.383 838.156 499.081 834.631 500.773C835.104 495.07 840.211 491.754 843.859 488.843C863.343 473.295 882.809 458.748 904.357 445.895L930.614 431.007C935.576 428.489 939.749 426.174 944.79 424.022C959.855 417.593 973.428 410.787 988.77 405.699C1006.18 399.925 1036.29 388.301 1053.28 387.922C1052.56 396.574 1034.38 415.648 1028.61 423.2C993.394 469.279 961.349 518 938.416 571.644L920.61 613.79C908.871 643.011 900.438 673.005 891.734 703.643C883.017 734.332 876.212 770.115 871.423 803.237C868.307 824.794 862.311 874.734 861.628 898.063C859.784 961.006 864.836 954.528 845.51 950.7C829.508 947.533 811.183 944.319 794.669 941.589C757.842 935.505 724.639 929.118 687.688 932.193C687.687 938.074 686.482 939.452 686.473 946.259L687.688 1172C706.543 1170.43 727.284 1167.02 744.995 1163.48C763.098 1159.86 779.342 1155.45 796.765 1150.59C804.279 1148.5 813.807 1145.33 821.528 1142.44C844.678 1133.77 866.903 1123.44 889.101 1112.45C896.482 1108.79 903.251 1104.84 910.235 1100.67C930.244 1088.7 950.316 1075.76 968.276 1061.14L995.399 1038.89C998.247 1036.25 1000.08 1033.79 1003.08 1031.29C1006.9 1028.09 1008.27 1027.2 1011.84 1023.59L1050.62 981.263C1085.15 942.492 1116.35 887.646 1135.57 839.329C1154.93 790.658 1167.9 735.744 1172.09 680.709C1175.29 638.535 1173.03 598.573 1167.37 557.134C1162.35 520.326 1151.82 487.978 1140.41 453.61C1135.07 437.508 1128.46 423.08 1121.07 408.303C1092.74 351.663 1057 301.981 1012.43 257.148L995.332 241.332C953.165 206.062 908.775 173.68 857.472 152.315C841.529 145.676 826.802 139.411 810.096 133.862Z" fill="white" fill-opacity="0.03"/>
</svg>
