<svg width="68" height="68" viewBox="0 0 68 68" fill="none" xmlns="http://www.w3.org/2000/svg">
<path d="M51.0833 16.25H51.115M17.8333 2H49.5C58.2445 2 65.3333 9.08882 65.3333 17.8333V49.5C65.3333 58.2445 58.2445 65.3333 49.5 65.3333H17.8333C9.08882 65.3333 2 58.2445 2 49.5V17.8333C2 9.08882 9.08882 2 17.8333 2ZM46.3333 31.6717C46.7241 34.3071 46.274 36.9987 45.0469 39.3635C43.8198 41.7284 41.8783 43.6461 39.4985 44.844C37.1187 46.0418 34.4217 46.4587 31.7913 46.0355C29.1609 45.6122 26.7309 44.3703 24.847 42.4863C22.9631 40.6024 21.7212 38.1724 21.2979 35.542C20.8746 32.9116 21.2915 30.2147 22.4894 27.8348C23.6872 25.455 25.6049 23.5135 27.9698 22.2864C30.3346 21.0593 33.0262 20.6092 35.6617 21C38.3499 21.3986 40.8387 22.6513 42.7604 24.573C44.682 26.4946 45.9347 28.9834 46.3333 31.6717Z" stroke="#C8C1B1" stroke-width="4" stroke-linecap="round" stroke-linejoin="round"/>
</svg>
