<svg width="264" height="143" viewBox="0 0 264 143" fill="none" xmlns="http://www.w3.org/2000/svg">
<path d="M182.965 94.357C179.544 95.1422 170.542 95.5942 170.542 95.5942L169.402 99.1631C169.402 99.1631 173.891 98.7824 177.169 99.1156C177.169 99.1156 178.238 98.9966 178.357 100.329C178.379 101.187 178.347 102.045 178.262 102.898C178.262 102.898 178.19 103.707 177.05 103.898C175.815 104.112 167.36 104.421 167.36 104.421L165.982 109.061C165.982 109.061 165.483 110.131 166.623 109.822C167.692 109.537 176.552 107.871 177.715 108.109C178.95 108.418 180.328 110.06 179.924 111.583C179.449 113.438 170.614 119.101 165.222 118.697C165.222 118.697 162.396 118.887 159.997 115.056C157.764 111.416 160.852 104.493 160.852 104.493C160.852 104.493 159.451 101.257 160.472 100.186C160.472 100.186 161.089 99.639 162.847 99.4962L165.008 94.9995C165.008 94.9995 162.538 95.1661 161.066 93.3579C159.688 91.621 159.593 90.8359 160.638 90.36C161.754 89.8128 172.039 87.9332 179.117 88.1712C179.117 88.1712 181.587 87.9332 183.701 92.2158C183.677 92.2158 184.722 93.9526 182.965 94.357ZM156.339 111.63C155.436 113.771 153.038 116.056 150.069 114.628C147.1 113.2 142.444 103.612 142.444 103.612C142.444 103.612 140.663 100.043 140.331 100.115C140.331 100.115 139.95 99.4248 139.713 103.327C139.475 107.229 139.76 114.818 138.217 116.008C136.744 117.198 134.963 116.722 134.036 115.318C133.205 113.938 132.849 110.655 133.3 104.897C133.846 99.1393 135.176 93.0009 136.887 91.0737C138.597 89.1466 139.974 90.5503 140.497 91.0497C140.497 91.0497 142.777 93.1197 146.553 99.2105L147.218 100.329C147.218 100.329 150.639 106.086 150.995 106.063C150.995 106.063 151.28 106.324 151.517 106.134C151.874 106.039 151.731 104.183 151.731 104.183C151.731 104.183 151.019 97.9257 147.907 87.3143C147.907 87.3143 147.432 85.982 147.765 84.7448C148.097 83.5076 149.332 84.0786 149.332 84.0786C149.332 84.0786 154.178 86.5054 156.505 94.4045C158.809 102.375 157.242 109.489 156.339 111.63ZM132.54 91.3354C132.136 92.1444 131.899 93.3102 129.856 93.6195C129.856 93.6195 110.309 94.9519 109.382 96.3318C109.382 96.3318 108.693 97.1407 109.762 97.3787C110.831 97.6166 115.249 98.1876 117.387 98.3065C119.667 98.3305 127.362 98.4017 130.117 101.852C130.117 101.852 131.756 103.493 131.685 107.205C131.614 111.012 130.949 112.344 129.476 113.724C127.932 115.009 114.679 120.957 106.128 111.821C106.128 111.821 102.186 107.419 107.482 104.088C107.482 104.088 111.306 101.78 121.021 104.493C121.021 104.493 123.966 105.563 123.823 106.634C123.657 107.776 121.401 108.989 118.123 108.918C114.94 108.823 112.612 107.3 113.064 107.538C113.491 107.704 109.644 105.682 108.456 107.062C107.268 108.323 107.553 109.108 108.717 109.893C111.686 111.583 123.158 110.988 126.578 107.181C126.578 107.181 127.932 105.635 125.866 104.374C123.799 103.184 117.885 102.47 115.581 102.351C113.372 102.232 105.154 102.375 103.967 100.186C103.967 100.186 102.779 98.711 104.086 94.5236C105.463 90.1458 115.035 88.4566 119.168 88.0759C119.168 88.0759 130.545 87.6714 132.635 90.0031C132.776 90.4428 132.742 90.9203 132.54 91.3354ZM100.238 117.007C98.8603 118.03 95.9389 117.578 95.1076 116.436C94.2763 115.413 93.9913 111.345 94.1575 104.968C94.3238 98.5207 94.4663 90.5265 95.8439 89.2655C97.3165 87.9807 98.219 89.099 98.7891 89.9793C99.4066 90.8358 100.143 91.7875 100.309 93.8098C100.475 95.8322 100.927 106.443 100.927 106.443C100.927 106.443 101.544 116.008 100.238 117.007ZM103.207 82.794C99.1929 84.1264 96.4377 83.6743 94.11 82.6751C93.0887 84.4595 92.4949 85.0067 91.7111 85.1257C90.5711 85.2446 89.5497 83.4126 89.3597 82.8178C89.1697 82.3658 88.6234 81.6044 89.2885 79.7962C87.0083 77.7501 86.8421 74.9902 87.2221 73.1344C87.7921 70.9931 91.6399 62.8562 103.349 61.9045C103.349 61.9045 109.073 61.4762 110.047 64.5454H110.214C110.214 64.5454 115.771 64.5692 115.653 69.518C115.581 74.4906 109.477 80.6765 103.207 82.794ZM92.2812 71.7782C91.0936 73.6816 91.0461 74.8236 91.5924 75.6088C92.9462 73.5389 95.4163 70.2793 99.0504 67.8049C96.2477 68.0429 93.8963 69.2563 92.2812 71.7782ZM108.456 68.5901C104.774 69.1373 99.0741 74.0861 96.3664 78.1308C100.523 78.8921 107.862 78.6066 111.116 71.9686C111.092 71.9686 112.66 67.8525 108.456 68.5901ZM208.402 106.919C206.194 110.774 199.994 118.815 191.729 116.936C188.997 123.574 186.717 130.26 185.411 140.3C185.411 140.3 185.126 142.251 183.511 141.561C181.919 140.99 179.259 138.325 178.737 134.637C178.167 129.784 180.328 121.575 184.722 112.177C183.44 110.084 182.561 107.086 183.321 102.827C183.321 102.827 184.437 94.9281 192.346 87.7904C192.346 87.7904 193.296 86.9577 193.843 87.2194C194.46 87.4811 194.175 90.0506 193.676 91.2878C193.178 92.525 189.639 98.6634 189.639 98.6634C189.639 98.6634 187.43 102.803 188.047 106.063C192.204 99.6627 201.657 86.7435 207.524 90.812C209.495 92.2158 210.398 95.2849 210.398 98.592C210.374 101.518 209.685 104.611 208.402 106.919ZM206.692 96.7838C206.692 96.7838 206.36 94.2381 203.89 97.0455C201.752 99.401 197.904 103.85 194.793 109.87C198.047 109.513 201.182 107.728 202.132 106.824C203.676 105.444 207.262 101.733 206.692 96.7838ZM91.3786 100.02C90.9273 105.777 88.7184 115.461 73.0661 120.243C62.7342 123.36 52.9724 121.861 47.652 120.505C47.5332 122.622 47.2958 123.526 46.9632 123.883C46.512 124.335 43.1392 126.286 41.2866 123.526C40.4553 122.218 40.0278 119.839 39.7903 117.721C27.8195 112.201 22.3091 104.255 22.0954 103.898C21.8341 103.636 19.1027 100.781 21.8341 97.2835C24.3993 94.1191 32.7836 90.9548 40.3365 89.67C40.5978 83.1985 41.3579 78.3211 42.2604 76.0846C43.353 73.4913 44.7306 75.8229 45.9181 77.5835C46.9157 78.8921 47.5095 84.5309 47.557 89.0276C52.4973 88.7897 55.4188 89.1465 60.9291 90.1458C68.1021 91.4544 72.8999 95.1184 72.4723 99.282C72.1636 103.374 68.4109 105.064 66.9858 105.182C65.4894 105.301 63.1618 104.231 63.1618 104.231C61.5704 103.469 63.043 102.803 64.9669 101.971C67.057 100.947 66.582 99.9006 66.582 99.9006C65.7982 97.6166 56.4876 96.0225 47.2245 96.0225C47.177 101.138 47.4383 109.632 47.557 114.58C54.0412 115.818 58.8865 115.58 58.8865 115.58C58.8865 115.58 82.543 114.913 83.2556 99.7817C83.9681 84.6498 59.6703 70.089 41.6904 65.4733C23.7342 60.7624 13.5686 64.0458 12.6898 64.4978C11.7397 64.9737 12.6185 65.1164 12.6185 65.1164C13.5231 65.2818 14.4127 65.5205 15.2787 65.8302C17.0601 66.4012 15.6824 67.3291 15.6824 67.3291C12.6185 68.3046 9.17454 67.686 8.50949 66.2822C7.84445 64.8785 8.96076 63.6175 10.2433 61.8093C11.5259 59.9059 12.9273 59.9773 12.9273 59.9773C35.135 52.2686 62.1879 66.2109 62.1879 66.2109C87.5309 79.0824 91.8536 94.1667 91.3786 100.02ZM24.3518 99.2345C21.8341 100.472 23.568 102.256 23.568 102.256C28.2945 107.348 34.1136 110.536 39.6478 112.51C40.289 103.731 40.194 100.638 40.2653 96.2129C31.6197 96.8076 26.6319 98.1876 24.3518 99.2345Z" fill="white" fill-opacity="0.9"/>
<path d="M255.43 97.4261V100.567C255.432 100.73 255.401 100.891 255.339 101.042C255.277 101.192 255.186 101.329 255.072 101.444C254.957 101.559 254.82 101.651 254.669 101.712C254.519 101.774 254.358 101.805 254.195 101.804H239.256C239.256 102.589 239.28 103.279 239.28 103.921C239.301 108.157 239.087 112.391 238.638 116.603C238.61 116.906 238.47 117.188 238.247 117.394C238.023 117.601 237.731 117.717 237.427 117.721H234.197C234.036 117.721 233.876 117.687 233.729 117.622C233.582 117.556 233.45 117.46 233.342 117.34C233.232 117.219 233.149 117.076 233.1 116.92C233.051 116.763 233.036 116.598 233.057 116.436C233.511 112.28 233.733 108.102 233.722 103.921C233.722 103.255 233.722 102.565 233.698 101.804H218.924C218.762 101.805 218.601 101.774 218.45 101.712C218.3 101.651 218.163 101.559 218.048 101.444C217.933 101.329 217.842 101.192 217.781 101.042C217.719 100.891 217.688 100.73 217.689 100.567V97.4261C217.688 97.2633 217.719 97.1019 217.781 96.9512C217.842 96.8005 217.933 96.6636 218.048 96.5485C218.163 96.4333 218.3 96.3423 218.45 96.2805C218.601 96.2188 218.762 96.1877 218.924 96.1889H233.484C233.19 91.1382 232.547 86.114 231.56 81.1522C231.534 81.0024 231.54 80.8489 231.577 80.7014C231.614 80.5539 231.681 80.4158 231.774 80.2957C231.868 80.1773 231.987 80.0815 232.122 80.0156C232.258 79.9497 232.407 79.9153 232.558 79.915H236.049C236.314 79.9163 236.57 80.0095 236.773 80.1787C236.977 80.348 237.115 80.5827 237.165 80.8429C238.126 85.9123 238.76 91.0382 239.066 96.1889H254.195C254.521 96.1944 254.832 96.3265 255.063 96.5574C255.293 96.7882 255.425 97.0997 255.43 97.4261Z" fill="white" fill-opacity="0.9"/>
<path d="M235.099 72.5158C227.962 54.9321 216.175 39.6295 201.007 28.2533C185.838 16.8771 167.86 9.85744 149.007 7.94908C130.154 6.04072 111.138 9.31582 94.0041 17.4223C76.87 25.5287 62.2655 38.1599 51.7609 53.9579C51.6566 54.1133 51.5895 54.2908 51.5647 54.4765C51.54 54.6622 51.5584 54.8511 51.6184 55.0285C51.6743 55.2075 51.7726 55.3702 51.905 55.5028C52.0374 55.6354 52.1998 55.7339 52.3785 55.7899L55.0861 56.7178C55.2405 56.763 55.4004 56.787 55.5612 56.7891C55.8087 56.7857 56.0518 56.7235 56.2706 56.6077C56.4895 56.4919 56.6777 56.3258 56.82 56.123C65.8678 42.7669 78.0427 31.8332 92.2811 24.2767C106.519 16.7202 122.388 12.7708 138.502 12.7735C157.915 12.7769 176.897 18.5078 193.08 29.2509C209.262 39.9939 221.927 55.2734 229.494 73.182C229.601 73.441 229.782 73.6627 230.014 73.8192C230.247 73.9758 230.52 74.0603 230.8 74.0623H234.03C234.214 74.0643 234.396 74.0195 234.558 73.9321C234.72 73.8447 234.857 73.7176 234.957 73.5626C235.071 73.4167 235.145 73.2427 235.17 73.0586C235.195 72.8746 235.171 72.6872 235.099 72.5158ZM230.135 73.634C230.201 73.6826 230.273 73.7226 230.349 73.753C230.277 73.7054 230.206 73.6816 230.135 73.634Z" fill="url(#paint0_radial_31_51)" fill-opacity="0.9"/>
<defs>
<radialGradient id="paint0_radial_31_51" cx="0" cy="0" r="1" gradientUnits="userSpaceOnUse" gradientTransform="translate(232.064 73.9433) scale(180.54 180.849)">
<stop offset="0.01" stop-color="white"/>
<stop offset="0.03" stop-color="#CBFFFF"/>
<stop offset="0.06" stop-color="#96FFFF"/>
<stop offset="0.08" stop-color="#68FFFF"/>
<stop offset="0.11" stop-color="#43FFFF"/>
<stop offset="0.14" stop-color="#25FFFF"/>
<stop offset="0.16" stop-color="#11FFFF"/>
<stop offset="0.19" stop-color="#04FFFF"/>
<stop offset="0.22" stop-color="#00FFFF"/>
<stop offset="1" stop-color="#0000FF" stop-opacity="0"/>
</radialGradient>
</defs>
</svg>
