<svg width="152" height="82" viewBox="0 0 152 82" fill="none" xmlns="http://www.w3.org/2000/svg">
<path fill-rule="evenodd" clip-rule="evenodd" d="M110.745 50.341C110.761 50.3272 111.297 49.8661 111.607 50.0139C111.962 50.1643 111.798 51.6375 111.511 52.3469C111.224 53.0563 109.186 56.5764 109.186 56.5764C109.171 56.6039 107.916 58.9614 108.27 60.8195C110.663 57.1495 116.106 49.7414 119.484 52.0744C120.618 52.8795 121.138 54.6392 121.138 56.5354C121.124 58.2134 120.728 59.9874 119.989 61.3107C118.717 63.521 115.148 68.1317 110.389 67.0539C108.816 70.8602 107.504 74.6941 106.752 80.4514C106.752 80.4514 106.587 81.5707 105.657 81.175C104.741 80.8474 103.21 79.3188 102.909 77.2043C102.581 74.4211 103.825 69.7142 106.355 64.3254C105.616 63.1249 105.111 61.4058 105.548 58.9641C105.548 58.9641 106.191 54.4339 110.745 50.341ZM7.44253 34.3928C20.1987 29.9828 35.7319 37.9296 35.8048 37.967C50.3961 45.3478 52.8849 53.9974 52.6115 57.3537C52.3516 60.6553 51.0803 66.2081 42.0685 68.9504C36.1198 70.7376 30.4989 69.8784 27.4357 69.1008C27.3673 70.3148 27.2307 70.8337 27.0392 71.0383C26.7781 71.2981 24.8369 72.4151 23.7707 70.8332C23.2921 70.0828 23.0461 68.7183 22.9093 67.5041C16.0172 64.3389 12.8449 59.782 12.7218 59.5774C12.5713 59.4271 10.9991 57.7907 12.5714 55.7854C14.0483 53.9709 18.8752 52.1559 23.2238 51.4191C23.3742 47.7083 23.8125 44.9116 24.3322 43.6291C24.9612 42.142 25.7539 43.4789 26.4376 44.4885C27.012 45.2389 27.3536 48.4725 27.381 51.051C30.2254 50.9146 31.9077 51.1186 35.0802 51.6916C39.2101 52.442 41.9728 54.5433 41.7267 56.9309C41.549 59.2775 39.388 60.2464 38.5675 60.3147C37.706 60.3829 36.3654 59.7688 36.3654 59.7688C35.4497 59.3323 36.2979 58.9503 37.4054 58.4729C38.6087 57.8862 38.3351 57.2854 38.3351 57.2854C37.8833 55.9757 32.5226 55.0617 27.1896 55.0617C27.1623 57.995 27.3126 62.8656 27.381 65.7033C31.1143 66.4128 33.9044 66.2766 33.9044 66.2766C33.9485 66.2753 47.5251 65.8799 47.9347 57.217C48.3445 48.5401 34.355 40.1909 24.0031 37.5441C13.6649 34.843 7.81178 36.7254 7.30581 36.9846C6.76851 37.2527 7.24834 37.3363 7.26479 37.3391C7.7856 37.4339 8.29843 37.5707 8.79702 37.7482C9.82255 38.0757 9.02944 38.6086 9.02944 38.6086C7.26544 39.1679 5.28262 38.8129 4.89956 38.008C4.51665 37.2031 5.15915 36.4795 5.8976 35.4426C6.62628 34.3658 7.4217 34.3919 7.44253 34.3928ZM103.128 50.5598C103.15 50.5579 104.559 50.4422 105.767 52.8791C105.763 52.8955 106.346 53.8767 105.343 54.1066C103.384 54.5544 98.246 54.8139 98.1916 54.8166L97.5343 56.8625C97.5343 56.8625 100.119 56.6442 102.006 56.8352C102.006 56.8352 102.622 56.7674 102.691 57.5315C102.703 58.0232 102.685 58.5156 102.636 59.0051C102.634 59.0198 102.583 59.47 101.938 59.5774C101.225 59.7002 96.3585 59.8781 96.3585 59.8781L95.5656 62.5383C95.5656 62.5383 95.2783 63.1522 95.9347 62.9748C96.5502 62.8111 101.651 61.8559 102.321 61.9924C103.032 62.17 103.825 63.1116 103.593 63.9846C103.319 65.0489 98.2322 68.2955 95.1281 68.0637C95.1281 68.0637 93.5004 68.173 92.1193 65.9768C90.841 63.901 92.5919 59.9631 92.6115 59.9191C92.6115 59.9191 91.8048 58.0634 92.3927 57.4494C92.3927 57.4494 92.7483 57.1358 93.7599 57.0539L95.005 54.4748C95.005 54.4748 93.5824 54.5703 92.7345 53.5334C91.9417 52.5378 91.8869 52.0875 92.4884 51.8147C93.1312 51.5009 99.0529 50.4233 103.128 50.5598ZM135.907 45.8254C136.06 45.8262 136.207 45.8798 136.324 45.9768C136.441 46.0738 136.521 46.2085 136.55 46.3576C137.103 49.2645 137.468 52.2039 137.644 55.1574H146.355C146.542 55.1606 146.722 55.236 146.855 55.3684C146.987 55.5006 147.062 55.6794 147.066 55.8664V57.6672C147.066 57.7604 147.049 57.8534 147.014 57.9397C146.978 58.0261 146.926 58.1051 146.86 58.1711C146.793 58.2371 146.715 58.289 146.628 58.3244C146.541 58.3598 146.448 58.3779 146.355 58.3772H137.753C137.753 58.8272 137.767 59.2228 137.767 59.591C137.779 62.0199 137.656 64.4483 137.398 66.8635C137.381 67.0372 137.301 67.1984 137.172 67.3166C137.043 67.435 136.875 67.5019 136.7 67.5041H134.841C134.748 67.5042 134.656 67.485 134.571 67.4475C134.487 67.4099 134.41 67.3551 134.348 67.2863C134.285 67.217 134.237 67.1345 134.209 67.0451C134.181 66.9557 134.172 66.8608 134.184 66.7678C134.446 64.3847 134.574 61.9884 134.568 59.591C134.568 59.2091 134.567 58.8136 134.553 58.3772H126.047C125.954 58.3778 125.861 58.3597 125.775 58.3244C125.688 58.2891 125.609 58.237 125.543 58.1711C125.477 58.1051 125.424 58.0261 125.389 57.9397C125.353 57.8533 125.335 57.7605 125.336 57.6672V55.8664C125.335 55.7732 125.353 55.6803 125.389 55.594C125.424 55.5077 125.477 55.4294 125.543 55.3635C125.609 55.2975 125.688 55.2455 125.775 55.2102C125.861 55.1748 125.954 55.1567 126.047 55.1574H134.43C134.26 52.2612 133.891 49.3796 133.322 46.5344C133.308 46.4487 133.311 46.3609 133.332 46.2766C133.353 46.1921 133.392 46.1129 133.445 46.0441C133.499 45.9762 133.568 45.9208 133.647 45.883C133.725 45.8454 133.81 45.8256 133.897 45.8254H135.907ZM55.1828 51.1867C56.0305 50.4502 56.5499 51.0921 56.8781 51.5969C57.2336 52.088 57.6583 52.6336 57.7541 53.7932C57.8495 54.9502 58.1081 61.0041 58.1095 61.0373C58.1095 61.0373 58.4649 66.521 57.713 67.0949C56.9199 67.6815 55.2377 67.4225 54.7589 66.7678C54.2803 66.1811 54.1164 63.8479 54.2121 60.1916C54.3078 56.4943 54.3896 51.9098 55.1828 51.1867ZM68.6115 50.5051C68.6115 50.5051 75.162 50.2735 76.3654 51.6106C76.4466 51.8626 76.427 52.1363 76.3107 52.3742C76.0783 52.8381 75.9415 53.5064 74.7658 53.6838C74.7658 53.6838 63.511 54.4482 62.9777 55.2395C62.9696 55.249 62.5876 55.7041 63.1964 55.8391C63.8118 55.9755 66.3553 56.3031 67.5861 56.3713C68.8989 56.3851 73.3298 56.4263 74.9162 58.4045C74.9296 58.4181 75.8592 59.3611 75.8185 61.4738C75.7775 63.6566 75.3947 64.4209 74.547 65.2121C73.6581 65.9489 66.0277 69.3592 61.1046 64.1203C61.0956 64.1103 58.8405 61.593 61.8839 59.6867C61.9111 59.6706 64.1203 58.3735 69.6789 59.9191C69.7117 59.9311 71.3734 60.5388 71.2921 61.1467C71.1963 61.8015 69.897 62.4972 68.0099 62.4563C66.1782 62.4017 64.8383 61.5296 65.0968 61.6652C65.3429 61.7607 63.1286 60.6011 62.4445 61.3918C61.7607 62.1149 61.9248 62.5656 62.5949 63.0158C64.3045 63.9844 70.9089 63.6429 72.8781 61.4602C72.8781 61.4602 73.6577 60.5739 72.4679 59.8508C71.2782 59.1687 67.8736 58.7589 66.547 58.6906C65.2752 58.6224 60.5433 58.7047 59.8595 57.4494C59.8533 57.4417 59.1793 56.5924 59.9279 54.2024C60.721 51.6921 66.2318 50.7234 68.6115 50.5051ZM85.0763 48.5949C85.2678 47.8855 85.9796 48.2131 85.9796 48.2131C86.0202 48.2335 88.7792 49.6378 90.1095 54.134C91.4359 58.7044 90.5335 62.7841 90.0138 64.0119C89.4942 65.2397 88.1127 66.549 86.4035 65.7307C84.7027 64.9162 82.0405 59.4689 82.0138 59.4143C82.0138 59.4143 80.9875 57.3675 80.796 57.4084C80.7916 57.4006 80.5759 57.036 80.4406 59.2502C80.3038 61.4875 80.4679 65.8391 79.5792 66.5217C78.7314 67.2038 77.7053 66.9311 77.172 66.1262C76.6935 65.3347 76.4884 63.4518 76.7482 60.1506C77.0627 56.849 77.829 53.3289 78.8136 52.2238C79.7979 51.1193 80.5907 51.9236 80.8917 52.2102C80.8917 52.2102 82.2047 53.3973 84.3791 56.8899L84.7619 57.5315C84.778 57.5586 86.7324 60.8331 86.9367 60.8195C86.945 60.827 87.1043 60.9658 87.2374 60.8596C87.4407 60.8047 87.3617 59.7573 87.3605 59.7414C87.3605 59.7414 86.9497 56.1533 85.1583 50.0686C85.1583 50.0686 84.8849 49.3043 85.0763 48.5949ZM23.1828 55.1711C18.2052 55.5122 15.3334 56.3032 14.0207 56.9035C12.5809 57.6082 13.5562 58.6222 13.5695 58.6359C16.2908 61.5555 19.641 63.3844 22.8273 64.5168C23.1965 59.4826 23.1417 57.7086 23.1828 55.1711ZM119.005 55.4982C119.004 55.488 118.808 54.0445 117.391 55.6486C116.16 56.9994 113.945 59.5506 112.153 63.0022C114.027 62.7975 115.832 61.7746 116.379 61.2561C117.268 60.4648 119.333 58.336 119.005 55.4982ZM59.5041 35.4973C59.5041 35.4973 62.7997 35.252 63.3605 37.0119H63.4562C63.4562 37.0119 66.6564 37.0257 66.588 39.8635C66.5469 42.7149 63.0322 46.2616 59.422 47.4758C57.1111 48.2397 55.5248 47.9813 54.1847 47.4084C53.5967 48.4315 53.2541 48.7455 52.8029 48.8137C52.1467 48.8813 51.5587 47.8305 51.4494 47.4895C51.3398 47.2302 51.0256 46.7934 51.4083 45.757C50.0957 44.5837 50.0001 43.0008 50.2189 41.9367C50.5475 40.7082 52.7631 36.043 59.5041 35.4973ZM63.9757 41.2688C63.9656 41.2593 64.8599 38.9093 62.4445 39.3313C60.3249 39.645 57.0425 42.4827 55.4835 44.802C57.8767 45.2385 62.1022 45.075 63.9757 41.2688ZM57.0294 38.8811C55.4159 39.0175 54.0619 39.7134 53.132 41.1594C52.4485 42.2505 52.4203 42.9055 52.7345 43.3557C53.514 42.1687 54.9372 40.2999 57.0294 38.8811ZM54.1232 9.99044C63.9883 5.34198 74.9373 3.46352 85.7921 4.55782C96.6469 5.65212 106.997 9.67802 115.731 16.2014C124.464 22.7248 131.251 31.4993 135.36 41.5822C135.402 41.6805 135.415 41.7882 135.401 41.8938C135.386 41.9992 135.344 42.0992 135.278 42.1828C135.221 42.2717 135.141 42.3446 135.048 42.3947C134.955 42.4447 134.85 42.4701 134.744 42.469H132.885C132.724 42.4678 132.566 42.4199 132.433 42.3303C132.299 42.2405 132.195 42.1126 132.133 41.9641C127.776 31.695 120.484 22.934 111.167 16.7736C101.85 10.6133 90.9207 7.32633 79.7433 7.32442C70.4661 7.32285 61.3298 9.58809 53.132 13.9211C44.9341 18.2542 37.9243 24.5241 32.715 32.1828C32.6331 32.299 32.5244 32.3938 32.3986 32.4602C32.2726 32.5266 32.1319 32.5627 31.9894 32.5647C31.8969 32.5634 31.8047 32.5495 31.716 32.5236L30.1574 31.9914C30.0545 31.9593 29.9611 31.9024 29.8849 31.8264C29.8088 31.7504 29.7521 31.6574 29.7199 31.5549C29.6853 31.4532 29.6744 31.3449 29.6886 31.2385C29.7029 31.132 29.7418 31.0298 29.8019 30.9406C35.8499 21.8819 44.2583 14.6389 54.1232 9.99044Z" fill="#C8C1B1"/>
</svg>
