<svg width="234" height="52" viewBox="0 0 234 52" fill="none" xmlns="http://www.w3.org/2000/svg">
<g clip-path="url(#clip0_31_94)">
<path fill-rule="evenodd" clip-rule="evenodd" d="M118.84 51.5736L129.782 51.7514L130.044 38.0835C135.631 37.7597 148.974 38.7254 153.14 37.5927L153.197 0.49606C150.067 -0.154517 122.315 -0.147289 118.94 0.412931L118.84 51.5729V51.5736ZM129.843 28.3646L142.1 28.3827L142.109 9.90775L130.049 9.73643L129.843 28.3646H129.843Z" fill="#FDFEFE" fill-opacity="0.9"/>
<path fill-rule="evenodd" clip-rule="evenodd" d="M222.774 28.795L222.986 42.2258L209.721 42.2475L209.53 35.3665L198.803 35.3181L199.228 51.3714C201.626 52.2772 229.474 52.0538 233.877 51.6454L234 19.4107L210.271 19.2047L209.684 14.7953C209.684 13.257 209.732 11.7209 209.824 10.1841L233.775 10.0251L234 1.05506L230.149 0.519422C223.917 0.444967 201.988 0.270756 198.892 0.83459C198.458 4.34626 198.233 23.2788 198.661 26.6112C199.074 29.8258 201.573 28.6757 209.406 28.675C213.735 28.675 218.502 28.4827 222.774 28.795H222.774Z" fill="#E43881" fill-opacity="0.9"/>
<path fill-rule="evenodd" clip-rule="evenodd" d="M157.63 4.66854C157.63 9.89701 156.609 17.4134 159.06 17.9888L168.772 17.8471L168.841 10.1247L181.978 10.111C182.409 20.6048 182.72 17.7596 169.747 26.0964C165.698 28.6987 161.171 31.1319 157.861 33.6416L157.848 51.6128L187.57 51.7067C193.119 51.7038 193.236 52.9956 193.091 47.3551C193.009 44.1463 193.226 40.6903 192.91 37.5415L182.291 37.4519L181.962 41.7811L168.896 42.0348C168.527 36.5158 170.141 37.1887 179.774 31.1051C183.315 28.8693 190.285 25.0027 192.903 22.6259C193.321 18.7514 193.651 3.37822 192.584 0.739049L160.695 0.446289C156.952 0.446289 157.628 1.13084 157.628 4.66781L157.63 4.66854Z" fill="#E43881" fill-opacity="0.9"/>
<path fill-rule="evenodd" clip-rule="evenodd" d="M38.6291 51.5938L73.8825 51.7449C74.512 48.6228 74.7233 36.1983 73.599 33.6668L63.1573 33.6422L62.9042 42.4619L49.6932 42.5219L49.6644 9.78625L62.6864 9.73927C64.4605 19.2681 58.1633 19.5558 73.7411 18.9912C74.5337 16.3773 74.3866 3.35638 73.964 0.271917L38.7727 0.193848L38.6284 51.5945L38.6291 51.5938Z" fill="#FDFEFE" fill-opacity="0.9"/>
<path fill-rule="evenodd" clip-rule="evenodd" d="M-2.25182e-05 51.6054L35.1985 51.7326L35.4509 33.7954C32.3874 33.5395 27.0782 33.2555 24.3241 34.0304L24.2866 42.4749L11.1088 42.532L11.0705 9.78913L24.0277 9.75009C24.5772 12.9762 24.1178 14.2506 24.2786 16.4713C24.539 20.061 25.5515 19.3562 35.0932 18.9767C35.4574 17.6416 35.9968 2.83084 35.016 0.355755L0.143489 0.174316L-0.00146484 51.6032L-2.25182e-05 51.6054Z" fill="#FDFEFE" fill-opacity="0.9"/>
<path fill-rule="evenodd" clip-rule="evenodd" d="M77.4103 51.6526L89.7061 51.7061C90.9653 50.1187 92.4472 45.3746 93.1295 43.5659C94.0742 41.0627 95.1451 36.8643 96.8701 35.5349C99.263 40.6492 100.837 46.4054 103.166 51.6114L115.722 51.7112C115.452 49.3995 111.778 41.9193 110.559 39.2143C103.741 24.0812 103.7 28.6193 109.977 13.3177C111.003 10.8159 114.903 1.8914 115.073 0.464466L102.652 0.214355C101.671 2.13356 100.381 6.3399 99.5875 8.56416L97.0843 15.4538C96.5427 16.3024 96.8492 15.8947 96.3112 16.3537L90.1049 0.39218L77.5913 0.23821C77.7586 1.92754 81.6168 10.5954 82.5623 12.837C89.0073 28.1249 89.3325 23.7212 82.6647 38.6844C81.3817 41.5629 77.5459 49.458 77.4103 51.6526Z" fill="#FDFEFE" fill-opacity="0.9"/>
</g>
<defs>
<clipPath id="clip0_31_94">
<rect width="234" height="52" fill="white"/>
</clipPath>
</defs>
</svg>
