<svg width="978" height="1281" viewBox="0 0 978 1281" fill="none" xmlns="http://www.w3.org/2000/svg">
<path fill-rule="evenodd" clip-rule="evenodd" d="M389.101 476.093C393.34 476.445 394.684 477.372 398.168 478.782C407.582 482.588 439.223 494.76 447.247 494.388C456.141 493.975 431.463 472.093 428.39 469.719C412.938 457.789 409.062 450.498 385.58 434.945C350.089 411.44 279.722 376.086 233.931 386.752C234.442 392.892 247.708 406.379 251.798 412.381C254.139 415.817 255.754 417.686 258.163 421.298C283.082 458.673 299.168 498.679 315.543 541.422C326.486 569.982 335.985 599.538 345.758 628.761C350.587 643.204 354.892 659.112 359.567 673.728C369.557 704.963 376.579 735.822 383.941 768.083C387.607 784.146 391.153 800.877 393.812 816.987L407.724 921.804C411.481 958.026 404.941 954.695 431.742 950.152C449.47 947.146 465.028 944.833 483.665 942.123C504.476 939.096 568.875 929.848 590.117 929.848C590.117 949.832 590.117 969.815 590.117 989.799C590.117 1010.92 588.941 1028.27 588.941 1049.75L588.957 1156.74C588.996 1163.55 588.185 1165.81 587.766 1170.83C558.646 1170.83 505.668 1157.76 479.757 1149.53C442.332 1137.64 410.642 1123.52 378.161 1105.36C354.34 1092.05 331.055 1076.64 309.974 1059.52C301.033 1052.27 291.586 1045.66 283.576 1037.72C280.334 1034.51 278.59 1032.45 275.077 1029.77C256.677 1015.72 228.732 981.302 213.447 960.913C184.416 922.185 161.808 882.123 143.249 835.975C131.081 805.719 121.133 770.791 114.526 734.215C110.999 714.687 110.444 696.445 107.474 676.614C103.395 649.375 107.5 610.599 109.369 581.931C109.954 572.939 111.89 562.538 113.351 553C116.177 534.536 120.256 516.639 124.852 499.846C147.162 418.348 180.053 361.498 230.561 297.565C233.381 293.993 235.41 292.202 238.142 288.687C241.25 284.685 242.542 283.521 246.002 280.09C249.459 276.661 250.374 274.586 253.602 271.234C262.154 262.348 276.94 247.386 286.835 239.811C290.258 237.19 291.944 235.227 295.737 232.257C341.701 196.284 369.012 176.314 425.948 150.871C440.873 144.201 457.227 138.156 472.719 132.987C580.207 97.117 704.385 98.7559 810.095 133.862C826.801 139.411 841.529 145.676 857.471 152.316C908.775 173.681 953.165 206.062 995.332 241.332L1012.43 257.149C1057 301.982 1092.74 351.662 1121.07 408.302C1128.46 423.079 1135.07 437.508 1140.41 453.611C1151.82 487.978 1162.34 520.326 1167.37 557.134C1173.03 598.573 1175.29 638.534 1172.09 680.709C1167.9 735.744 1154.93 790.658 1135.57 839.329C1116.35 887.646 1085.15 942.493 1050.62 981.263L1011.84 1023.59C1008.27 1027.2 1006.9 1028.09 1003.08 1031.29C1000.08 1033.79 998.247 1036.25 995.4 1038.89L968.276 1061.14C950.316 1075.76 930.244 1088.7 910.236 1100.67C903.251 1104.84 896.482 1108.79 889.1 1112.45C866.903 1123.44 844.678 1133.77 821.529 1142.44C813.807 1145.33 804.28 1148.5 796.765 1150.59C779.342 1155.45 763.098 1159.86 744.995 1163.48C727.284 1167.02 706.544 1170.43 687.688 1172L686.472 946.258C686.481 939.452 687.688 938.074 687.688 932.193C724.639 929.118 757.842 935.505 794.669 941.589C811.182 944.319 829.508 947.532 845.509 950.7C864.837 954.528 859.785 961.007 861.628 898.064C862.311 874.734 868.307 824.794 871.423 803.237C876.211 770.115 883.016 734.332 891.734 703.643C900.438 673.005 908.871 643.011 920.61 613.79L938.416 571.644C961.349 518 993.394 469.279 1028.61 423.2C1034.38 415.648 1052.56 396.574 1053.28 387.922C1036.29 388.301 1006.18 399.924 988.769 405.699C973.428 410.787 959.856 417.593 944.79 424.023C939.749 426.174 935.576 428.489 930.615 431.007L904.358 445.895C882.81 458.748 863.344 473.296 843.86 488.843C840.212 491.754 835.104 495.07 834.631 500.773C838.156 499.081 844.002 498.383 847.808 497.493C853.111 496.255 856.886 494.966 861.662 493.714C866.251 492.509 870.175 491.432 874.599 490.194C878.989 488.964 883.788 487.076 888.705 486.667C887.557 491.596 882.247 500.793 879.69 505.864L870.282 525.845C863.824 539.769 858.802 552.719 852.932 567.27C850.189 574.062 847.483 581.508 845.347 587.898L825.463 656.178C813.555 703.808 804.472 753.756 797.51 803.378C796.17 812.923 795.473 819.872 794.147 829.403L791.136 855.781L685.339 838.148V484.314C710.014 484.314 746.401 495.411 768.802 490.192C766.378 485.613 742.492 467.163 726.474 444.355C720.223 435.456 714.585 426.706 708.916 417.244L693.073 388.418C681.924 369.797 673.206 348.731 665.019 328.308C657.913 310.582 645.373 278.348 645.373 258.613H643.022C642.625 263.379 639.547 270.952 637.892 275.818C635.934 281.567 634.181 286.391 631.95 292.212C621.244 320.154 606.314 361.24 590.124 385.573C572.331 412.315 554.345 438.769 535.041 464.499C531.372 469.393 516.536 485.693 516.064 491.368C540.081 489.37 565.67 489.018 590.122 489.018V840.5C573.537 840.5 496.477 853.789 491.297 848.81C489.219 846.812 485.432 823.111 484.619 819.046C472.589 758.899 458.871 700.536 442.939 642.077L413.951 544.11C410.808 533.772 389.518 481.019 389.107 476.086L389.101 476.093ZM0.00177951 624.209C0.00177951 691.258 2.25642 729.736 18.1066 793.014C29.9101 840.141 39.8914 866.404 58.7631 908.702C66.5307 926.114 70.9439 932.898 77.9694 947.096C83.4094 958.09 93.5882 973.488 99.8663 983.975L149.597 1051.8L196.599 1102.36C217.665 1123.67 272.034 1166.06 294.684 1179.43C331.184 1200.98 341.998 1209.18 383.549 1226.93C457.184 1258.38 541.221 1280.15 624.207 1280.15C691.172 1280.15 729.795 1277.88 793.012 1262.05C813.845 1256.83 833.923 1251.49 852.755 1244.2C862.817 1240.31 871.115 1237.57 880.982 1233.64C890.91 1229.68 899.612 1225.44 908.7 1221.39C938.822 1207.95 968.68 1190.67 996.147 1172.47C1010.66 1162.86 1039.47 1141.53 1051.8 1130.55C1058.88 1124.25 1065.75 1119.06 1072.37 1112.33L1129.99 1052.4C1136.19 1045.43 1141.86 1038.23 1147.32 1030.94C1165.99 1005.97 1186.16 977.09 1201 949.438C1203.64 944.521 1205.53 941.208 1208.06 936.508C1220.56 913.288 1234.6 879.382 1243.56 854.459C1264.49 796.245 1280.15 722.1 1280.15 655.943C1280.15 588.896 1277.9 550.416 1262.05 487.138C1256.82 466.275 1251.5 446.256 1244.21 427.395C1240.32 417.333 1237.58 409.036 1233.64 399.168C1229.68 389.24 1225.44 380.538 1221.39 371.45C1198.7 320.588 1150.25 245.128 1112.34 207.776L1052.4 150.164C998.309 102.005 923.089 61.258 854.462 36.5904C796.302 15.6829 721.97 0 655.947 0C588.98 0 550.359 2.26888 487.142 18.1048C466.508 23.2725 446.073 28.7267 427.398 35.9462C417.337 39.8362 409.039 42.5766 399.172 46.5112C389.244 50.4706 380.542 54.7076 371.454 58.7613L320.243 85.1337C311.744 90.1306 304.135 95.1026 296.181 99.8645C291.716 102.537 288.529 104.68 284.007 107.675C219.044 150.718 161.117 208.103 116.371 271.538C111.027 279.115 105.696 286.258 100.722 294.682C95.7645 303.078 91.0648 310.463 86.0288 318.782C56.4088 367.724 32.0473 431.4 18.3379 486.197C8.46515 525.658 0 575.943 0 624.205L0.00177951 624.209Z" fill="white" fill-opacity="0.03"/>
</svg>
